 http://i1228.photobucket.com/albums/ee447/austintxut1/CMA.png

 
http://i1178.photobucket.com/albums/x374/IARG1/CMAMusicFestival2011CountrysNightToRockXvid-IARGavi_thumbs_20110815_125038.jpg

 
http://www.cmaworld.com/cma-music-festival/music-fest-tv


Program Information

Program / Time / Channel
    CMA Music Festival 2011 (Country's Night To Rock)Xvid-IARG 8:00 - 11:00pm on KETVDT

    Series/Special. Lauren Alaina, Jason Aldean, Sara Evans. Highlights of the four-day event include performances by Lauren Alaina, Jason Aldean and Sara Evans. 


CMA Music Festival 2011 (Country's Night To Rock)Xvid-IARG.


Format                           : AVI
Format/Info                      : Audio Video Interleave
Format profile                   : OpenDML
File size                        : 2.59 GiB
Duration                         : 2h 6mn
Overall bit rate                 : 2 928 Kbps
Writing application              : VirtualDubMod 1.5.4.1 (build 2178/release)
Writing library                  : VirtualDub build 32842/release


Video
ID                               : 0
Format                           : MPEG-4 Visual
Format profile                   : Advanced Simple@L5
Format settings, BVOP            : 1
Format settings, QPel            : No
Format settings, GMC             : No warppoints
Format settings, Matrix          : Custom
Codec ID                         : XVID
Codec ID/Hint                    : XviD
Duration                         : 2h 6mn
Bit rate                         : 2 786 Kbps
Width                            : 624 pixels
Height                           : 352 pixels
Display aspect ratio             : 16:9
Frame rate                       : 29.970 fps
Color space                      : YUV
Chroma subsampling               : 4:2:0
Bit depth                        : 8 bits
Scan type                        : Progressive
Compression mode                 : Lossy
Bits/(Pixel*Frame)               : 0.423
Stream size                      : 2.47 GiB (95%)
Writing library                  : XviD 64


Audio
ID                               : 1
Format                           : MPEG Audio
Format version                   : Version 1
Format profile                   : Layer 3
Mode                             : Joint stereo
Mode extension                   : MS Stereo
Codec ID                         : 55
Codec ID/Hint                    : MP3
Duration                         : 2h 6mn
Bit rate mode                    : Constant
Bit rate                         : 128 Kbps
Channel(s)                       : 2 channels
Sampling rate                    : 48.0 KHz
Compression mode                 : Lossy
Stream size                      : 116 MiB (4%)
Alignment                        : Aligned on interleaves
Interleave, duration             : 33 ms (1.00 video frame)
Interleave, preload duration     : 504 ms
Writing library                  : LAME3.98r
Encoding settings                : -m j -V 4 -q 2 -lowpass 17 -b 128



